<?xml version="1.0" encoding="utf-8"?>
<!-- Generator: Adobe Illustrator 28.2.0, SVG Export Plug-In . SVG Version: 6.00 Build 0)  -->
<svg version="1.1" id="Layer_1" xmlns="http://www.w3.org/2000/svg" xmlns:xlink="http://www.w3.org/1999/xlink" x="0px" y="0px"
	 viewBox="0 0 820.3 158.6" style="enable-background:new 0 0 820.3 158.6;" xml:space="preserve">
<style type="text/css">
	.st0{fill:#FFFFFF;}
	.st1{fill:#73BD46;}
</style>
<g>
	<path class="st0" d="M773.8,113.3H628.5v4.8h145.2L773.8,113.3L773.8,113.3z"/>
	<path class="st0" d="M602.2,113.3H488.7v4.8h113.4L602.2,113.3L602.2,113.3z"/>
	<path class="st0" d="M194.2,113.3H41.4v4.8h152.8L194.2,113.3L194.2,113.3z"/>
	<path class="st0" d="M450.5,113.3H244.7v4.8h205.9L450.5,113.3L450.5,113.3z"/>
	<g>
		<g>
			<path class="st0" d="M41.6,46.2h20.9c16.2,0,27.1,11,27.1,28.1c0,16.9-10.6,29.3-27.5,29.3H41.6V46.2z M50.1,96.5h11.5
				c13,0,19.2-9.4,19.2-22c0-11-5.6-21.1-19.1-21.1H50.1V96.5z"/>
			<path class="st0" d="M105.3,84.1c0,7.9,4,13.8,10.9,13.8c6.3,0,8.3-3.1,9.6-6.1h8.2c-1.6,5.3-6.1,12.8-18,12.8
				c-13.3,0-18.9-10.7-18.9-21.5c0-12.6,6.4-22.5,19.3-22.5c13.7,0,18.3,10.8,18.3,20.1c0,1.3,0,2.3-0.1,3.5h-29.3V84.1z
				 M126.5,78.6c-0.1-6.5-3.3-11.8-10.2-11.8c-7,0-10.1,4.9-10.8,11.8H126.5z"/>
			<path class="st0" d="M148.2,91.5c1.1,4.4,4.4,6.9,9.9,6.9c5.8,0,8.1-2.4,8.1-6c0-3.7-1.9-5.4-9.5-7.2c-12.3-3-14.8-6.8-14.8-12.5
				c0-6,4.4-12,15.5-12c11.2,0,15.6,6.4,16.1,12.2h-7.8c-0.6-2.5-2.4-6.1-8.7-6.1c-5.5,0-7.1,2.6-7.1,5.2c0,2.9,1.6,4.4,9.2,6.2
				c13,3.1,15.4,7.4,15.4,13.7c0,7.3-5.7,12.9-16.7,12.9c-11.3,0-16.6-5.6-17.6-13.1h8V91.5z"/>
			<path class="st0" d="M183.4,43h8.1v9.3h-8.1V43z M183.4,61.6h8.1v42h-8.1V61.6z"/>
			<path class="st0" d="M238.9,99.6c0,13.5-5.5,21.3-19.6,21.3c-13.3,0-17-7.4-17.7-12.9h8.3c1.1,4.3,4.5,6.6,9.8,6.6
				c9.2,0,11.3-5.8,11.3-15.2v-3.1c-2.2,4.5-6,7.1-12.9,7.1c-10.5,0-17.4-8.6-17.4-20.7c0-13.6,8-22.1,18.2-22.1
				c7.9,0,11.2,3.7,12.1,6.3c0.1-1.8,0.3-4.5,0.4-5.3h7.7c0,2.7-0.1,8.1-0.1,12.1v25.9H238.9z M209.1,82.3c0,8.6,4.4,14.2,11,14.2
				c8.7,0,11.2-5.8,11.2-14.7c0-9-2.3-14.5-10.9-14.5C213.1,67.3,209.1,73.3,209.1,82.3z"/>
			<path class="st0" d="M251,72.1c0-3.6,0-7.4-0.1-10.6h7.9c0.2,1.2,0.3,5.3,0.3,6.6c1.6-3.4,5.1-7.6,13-7.6c8,0,14,5,14,16.1v27
				H278v-26c0-6-2.3-10.2-8.5-10.2c-7.4,0-10.5,5.4-10.5,13.7v22.5h-8V72.1z"/>
			<path class="st0" d="M303.4,84.1c0,7.9,4,13.8,10.9,13.8c6.3,0,8.3-3.1,9.6-6.1h8.2c-1.6,5.3-6.1,12.8-18,12.8
				c-13.3,0-18.9-10.7-18.9-21.5c0-12.6,6.4-22.5,19.3-22.5c13.7,0,18.3,10.8,18.3,20.1c0,1.3,0,2.3-0.1,3.5h-29.3V84.1z
				 M324.6,78.6c-0.1-6.5-3.3-11.8-10.2-11.8c-7,0-10.1,4.9-10.8,11.8H324.6z"/>
			<path class="st0" d="M377.4,43v48.8c0,3.9,0,7.8,0.1,11.8h-7.8c-0.2-1.1-0.4-4.2-0.4-5.7c-2.1,4.2-6.2,6.7-13,6.7
				c-10.8,0-17.4-8.7-17.4-21.6s7.2-22.4,18.9-22.4c7.2,0,10.5,2.8,11.6,5.1V43H377.4z M347.3,82.8c0,9.8,4.5,15.1,10.9,15.1
				c9.5,0,11.4-7.1,11.4-15.7c0-8.9-1.8-14.7-10.9-14.7C351.6,67.3,347.3,73,347.3,82.8z"/>
			<path class="st0" d="M411.6,46.2h22.6c12.5,0,18,6.5,18,14.4c0,6.6-3.8,10.9-8.1,12.5c4,1.3,9.9,5.4,9.9,13.6
				c0,10.6-8.1,16.9-19.3,16.9h-23.2V46.2H411.6z M432.7,69.9c7.9,0,10.9-3.2,10.9-8.5c0-4.9-3.6-8.3-9.9-8.3h-13.8v16.7L432.7,69.9
				L432.7,69.9z M419.9,96.7h13.6c7.1,0,11.7-3.3,11.7-10.1c0-5.9-3.8-9.9-12.9-9.9h-12.4L419.9,96.7L419.9,96.7z"/>
			<path class="st0" d="M467.5,61.6c6.3,19,10.1,30.6,11.1,34.8h0.1c1.3-4.7,4.2-14.2,10.7-34.8h8.2l-14.9,43.8
				c-4.2,12.3-7.4,15.5-16.3,15.5c-1.3,0-3-0.1-4.7-0.3v-6.9c1,0.1,2.2,0.2,3.4,0.2c5.1,0,7.2-2.2,9.5-8.7l-15.7-43.6
				C458.9,61.6,467.5,61.6,467.5,61.6z"/>
		</g>
	</g>
	<g>
		<path class="st0" d="M521.9,50c-1,0-1.9-0.3-2.6-1c-0.7-0.7-1-1.5-1-2.6c0-1,0.3-1.9,1-2.6c0.7-0.7,1.5-1,2.6-1h39.8
			c1,0,1.9,0.3,2.6,1c0.7,0.7,1,1.5,1,2.6c0,1-0.3,1.9-1,2.6c-0.7,0.7-1.5,1-2.6,1H521.9z M541.8,100.9c-1.1,0-2-0.4-2.7-1.1
			s-1.1-1.7-1.1-2.7V42.9h7.7v54.2c0,1.1-0.4,2-1.1,2.7C543.8,100.5,542.9,100.9,541.8,100.9z"/>
		<path class="st0" d="M580.3,101.2c-4,0-7.6-0.9-10.6-2.6c-3.1-1.8-5.5-4.2-7.3-7.3c-1.8-3.1-2.6-6.7-2.6-10.7
			c0-4.1,0.9-7.6,2.6-10.7c1.8-3.1,4.2-5.5,7.3-7.3s6.6-2.6,10.6-2.6s7.5,0.9,10.6,2.6c3.1,1.8,5.5,4.2,7.3,7.3s2.6,6.7,2.6,10.7
			s-0.9,7.6-2.6,10.7c-1.7,3.1-4.1,5.5-7.2,7.3C587.9,100.3,584.3,101.2,580.3,101.2z M580.3,94.5c2.6,0,4.9-0.6,6.8-1.8
			c2-1.2,3.5-2.8,4.7-4.9s1.7-4.5,1.7-7.2s-0.6-5.1-1.7-7.2c-1.1-2.1-2.7-3.8-4.7-4.9c-2-1.2-4.3-1.8-6.8-1.8
			c-2.6,0-4.9,0.6-6.8,1.8c-2,1.2-3.5,2.8-4.7,4.9c-1.1,2.1-1.7,4.5-1.7,7.2s0.6,5.1,1.7,7.2c1.1,2.1,2.7,3.7,4.7,4.9
			S577.7,94.5,580.3,94.5z"/>
		<path class="st0" d="M615.9,118.3c-1.1,0-2-0.4-2.7-1.1s-1.1-1.6-1.1-2.7V80.6c0.1-3.9,1-7.4,2.7-10.6c1.8-3.1,4.2-5.6,7.3-7.4
			c3.1-1.8,6.5-2.7,10.4-2.7s7.4,0.9,10.5,2.7c3.1,1.8,5.5,4.3,7.3,7.4s2.7,6.6,2.7,10.6c0,3.9-0.8,7.4-2.5,10.5s-3.9,5.6-6.8,7.4
			c-2.9,1.8-6.1,2.7-9.7,2.7c-2.9,0-5.6-0.6-8.1-1.8c-2.5-1.2-4.5-2.9-6.3-4.9v20.1c0,1.1-0.3,2-1,2.7
			C617.9,117.9,617,118.3,615.9,118.3z M632.5,94.5c2.5,0,4.8-0.6,6.8-1.8c2-1.2,3.6-2.9,4.7-5c1.2-2.1,1.7-4.5,1.7-7.1
			c0-2.7-0.6-5.1-1.7-7.2c-1.2-2.1-2.7-3.8-4.7-5s-4.2-1.8-6.8-1.8c-2.5,0-4.7,0.6-6.7,1.8c-2,1.2-3.6,2.9-4.7,5
			c-1.1,2.1-1.7,4.5-1.7,7.2c0,2.6,0.6,5,1.7,7.1s2.7,3.8,4.7,5C627.8,93.9,630,94.5,632.5,94.5z"/>
		<path class="st0" d="M668.9,53.6c-1.3,0-2.5-0.5-3.5-1.5s-1.5-2.1-1.5-3.5c0-1.3,0.5-2.5,1.5-3.5s2.1-1.5,3.5-1.5
			c1.3,0,2.5,0.5,3.5,1.5s1.5,2.1,1.5,3.5c0,1.3-0.5,2.5-1.5,3.5S670.2,53.6,668.9,53.6z M668.9,100.9c-1.1,0-2-0.4-2.7-1.1
			s-1.1-1.6-1.1-2.7V64c0-1.1,0.4-2.1,1.1-2.7c0.7-0.7,1.6-1,2.7-1c1.1,0,2.1,0.3,2.7,1c0.7,0.7,1,1.6,1,2.7v33.1c0,1.1-0.3,2-1,2.7
			C670.9,100.6,670,100.9,668.9,100.9z"/>
		<path class="st0" d="M690.4,100.9c-1.1,0-2-0.3-2.6-1c-0.7-0.7-1-1.5-1-2.6V46.5c0-1.1,0.3-2,1-2.6c0.7-0.7,1.5-1,2.6-1
			s2,0.3,2.6,1c0.7,0.7,1,1.5,1,2.6v50.8c0,1.1-0.3,2-1,2.6C692.4,100.6,691.5,100.9,690.4,100.9z M693.9,86l-4.6-5.1l22.8-20.4
			c0.7-0.7,1.6-1,2.5-1c0.9,0.1,1.7,0.4,2.3,1.2c0.7,0.7,1,1.6,1,2.5c-0.1,0.9-0.5,1.7-1.2,2.4L693.9,86z M717,100.5
			c-0.8,0.6-1.7,0.9-2.6,0.9c-1-0.1-1.8-0.5-2.4-1.3l-15.1-18.7l5.2-4.9l15.5,19c0.6,0.8,0.9,1.7,0.9,2.6
			C718.3,99,717.8,99.8,717,100.5z"/>
		<path class="st0" d="M743.8,101.2c-4,0-7.6-0.9-10.6-2.6c-3.1-1.8-5.5-4.2-7.3-7.3c-1.8-3.1-2.6-6.7-2.6-10.7
			c0-4.1,0.9-7.6,2.6-10.7c1.8-3.1,4.2-5.5,7.3-7.3s6.6-2.6,10.6-2.6s7.5,0.9,10.6,2.6c3.1,1.8,5.5,4.2,7.3,7.3s2.6,6.7,2.6,10.7
			s-0.9,7.6-2.6,10.7c-1.7,3.1-4.1,5.5-7.2,7.3C751.4,100.3,747.8,101.2,743.8,101.2z M743.8,94.5c2.6,0,4.9-0.6,6.8-1.8
			c2-1.2,3.5-2.8,4.6-4.9s1.7-4.5,1.7-7.2s-0.6-5.1-1.7-7.2c-1.1-2.1-2.7-3.8-4.6-4.9s-4.3-1.8-6.8-1.8c-2.6,0-4.9,0.6-6.8,1.8
			s-3.5,2.8-4.7,4.9c-1.1,2.1-1.7,4.5-1.7,7.2s0.6,5.1,1.7,7.2c1.1,2.1,2.7,3.7,4.7,4.9C738.9,93.9,741.2,94.5,743.8,94.5z"/>
		<path class="st1" d="M766,100c-0.9-0.9-1.3-2-1.3-3.3s0.4-2.4,1.3-3.3c0.9-0.9,2-1.3,3.3-1.3c1.2,0,2.3,0.4,3.2,1.3s1.3,2,1.3,3.3
			s-0.4,2.4-1.3,3.3c-0.9,0.9-1.9,1.3-3.2,1.3C768,101.4,766.9,100.9,766,100z"/>
	</g>
</g>
</svg>
