<svg width="37" height="37" viewBox="0 0 37 37" fill="none" xmlns="http://www.w3.org/2000/svg">
<path d="M18.0604 36.1207C8.10213 36.1207 0 28.0193 0 18.0604C0 8.10145 8.10147 0 18.0604 0C28.0186 0 36.1201 8.10145 36.1201 18.0604C36.1201 28.0193 28.0186 36.1207 18.0604 36.1207Z" fill="#353F50"/>
<path d="M25.0411 17.8976C25.0411 18.8556 24.8853 19.7436 24.5503 20.5226C24.2155 21.3171 23.7714 22.0026 23.2105 22.5634C22.6498 23.1399 21.9876 23.5683 21.2165 23.8876C20.4532 24.207 19.643 24.3472 18.7628 24.3472C17.9059 24.3472 17.088 24.1914 16.3246 23.872C15.5613 23.5527 14.907 23.1087 14.3305 22.5324C13.7541 21.9559 13.3101 21.2704 12.9907 20.4915C12.6558 19.697 12.5 18.8323 12.5 17.882V7H15.6392V12.7331C15.8106 12.5228 16.0052 12.3358 16.2467 12.1567C16.4882 11.9775 16.7375 11.8529 17.0257 11.7438C17.2984 11.6348 17.6021 11.5491 17.8825 11.5023C18.1863 11.44 18.4746 11.4244 18.755 11.4244C19.6274 11.4244 20.4454 11.5802 21.2087 11.9152C21.972 12.2346 22.6264 12.6941 23.2027 13.2706C23.7636 13.847 24.2232 14.5325 24.5425 15.327C24.8853 16.0982 25.0411 16.955 25.0411 17.8976ZM21.9019 17.8976C21.9019 17.4224 21.824 16.9861 21.6605 16.5734C21.4969 16.1605 21.2788 15.8099 20.9906 15.5061C20.7023 15.2024 20.3829 14.9842 20.0013 14.8051C19.6196 14.6337 19.2223 14.548 18.794 14.548C18.3655 14.548 17.9682 14.6415 17.5865 14.8363C17.2049 15.031 16.8855 15.2647 16.5973 15.584C16.309 15.8878 16.0909 16.254 15.9274 16.6513C15.7716 17.0484 15.6859 17.4613 15.6859 17.8976C15.6859 18.3727 15.7638 18.8089 15.9274 19.2218C16.0831 19.6191 16.309 19.9695 16.5973 20.2733C16.8855 20.5771 17.2049 20.7953 17.5865 20.9743C17.9682 21.1457 18.3655 21.2314 18.794 21.2314C19.2223 21.2314 19.6196 21.1535 20.0013 20.9743C20.3829 20.8031 20.7023 20.5616 20.9906 20.2733C21.2788 19.9695 21.4969 19.6191 21.6605 19.2218C21.824 18.8245 21.9019 18.3727 21.9019 17.8976Z" fill="white"/>
<path d="M24.9242 25.593H12.5V28.8101H24.9242V25.593Z" fill="#F62D2D"/>
</svg>
