<?xml version="1.0" encoding="utf-8"?>
<!-- Generator: Adobe Illustrator 28.2.0, SVG Export Plug-In . SVG Version: 6.00 Build 0)  -->
<svg version="1.1" id="Layer_1" xmlns="http://www.w3.org/2000/svg" xmlns:xlink="http://www.w3.org/1999/xlink" x="0px" y="0px"
	 viewBox="0 0 37 37" style="enable-background:new 0 0 37 37;" xml:space="preserve">
<style type="text/css">
	.st0{fill:#BDC2CB;}
</style>
<g>
	<path class="st0" d="M25.5,18.3c0,1-0.2,1.8-0.5,2.6c-0.3,0.8-0.8,1.5-1.3,2c-0.6,0.6-1.2,1-2,1.3c-0.8,0.3-1.6,0.5-2.5,0.5
		c-0.9,0-1.7-0.2-2.4-0.5c-0.8-0.3-1.4-0.8-2-1.3c-0.6-0.6-1-1.3-1.3-2c-0.3-0.8-0.5-1.7-0.5-2.6V7.4h3.1v5.7
		c0.2-0.2,0.4-0.4,0.6-0.6c0.2-0.2,0.5-0.3,0.8-0.4c0.3-0.1,0.6-0.2,0.9-0.2c0.3-0.1,0.6-0.1,0.9-0.1c0.9,0,1.7,0.2,2.5,0.5
		c0.8,0.3,1.4,0.8,2,1.4c0.6,0.6,1,1.3,1.3,2.1C25.3,16.5,25.5,17.4,25.5,18.3z M22.3,18.3c0-0.5-0.1-0.9-0.2-1.3
		c-0.2-0.4-0.4-0.8-0.7-1.1c-0.3-0.3-0.6-0.5-1-0.7c-0.4-0.2-0.8-0.3-1.2-0.3c-0.4,0-0.8,0.1-1.2,0.3c-0.4,0.2-0.7,0.4-1,0.7
		c-0.3,0.3-0.5,0.7-0.7,1.1c-0.2,0.4-0.2,0.8-0.2,1.2c0,0.5,0.1,0.9,0.2,1.3c0.2,0.4,0.4,0.7,0.7,1.1c0.3,0.3,0.6,0.5,1,0.7
		c0.4,0.2,0.8,0.3,1.2,0.3c0.4,0,0.8-0.1,1.2-0.3c0.4-0.2,0.7-0.4,1-0.7c0.3-0.3,0.5-0.7,0.7-1.1C22.3,19.3,22.3,18.8,22.3,18.3z"/>
	<path class="st0" d="M25.4,26H12.9v3.2h12.4V26z"/>
</g>
</svg>
