<svg width="37" height="37" viewBox="0 0 37 37" fill="none" xmlns="http://www.w3.org/2000/svg">
<path d="M18.0604 36.12C8.10213 36.12 0 28.0186 0 18.0604C0 8.10211 8.10147 0 18.0604 0C28.0186 0 36.1201 8.10145 36.1201 18.0604C36.1201 28.0186 28.0186 36.12 18.0604 36.12Z" fill="#353F50"/>
<path fill-rule="evenodd" clip-rule="evenodd" d="M15.228 18.1453V28.6124C15.228 28.7633 15.3497 28.8851 15.5006 28.8851H19.3876C19.5378 28.8851 19.6602 28.7633 19.6602 28.6124V17.9746H22.4785C22.6201 17.9746 22.7379 17.8661 22.7498 17.7251L23.0211 14.5198C23.0343 14.3609 22.9093 14.224 22.7491 14.224H19.6602V11.9503C19.6602 11.4176 20.0923 10.9855 20.625 10.9855H22.7967C22.9476 10.9855 23.0694 10.8637 23.0694 10.7129V7.50749C23.0694 7.35728 22.9469 7.23486 22.7967 7.23486H19.1269C16.9736 7.23486 15.2273 8.98049 15.2273 11.1344V14.2246H13.2839C13.133 14.2246 13.0112 14.347 13.0112 14.4973V17.7026C13.0112 17.8535 13.133 17.9753 13.2839 17.9753H15.2273L15.228 18.1453Z" fill="white"/>
</svg>
