<svg width="36" height="36" viewBox="0 0 36 36" fill="none" xmlns="http://www.w3.org/2000/svg">
<path d="M17.9293 33.506C26.6089 33.506 33.6451 26.4697 33.6451 17.7901C33.6451 9.11046 26.6089 2.07422 17.9293 2.07422C9.24962 2.07422 2.21338 9.11046 2.21338 17.7901C2.21338 26.4697 9.24962 33.506 17.9293 33.506Z" fill="white"/>
<path d="M17.9426 35.8845C8.04917 35.8845 0 27.8353 0 17.9426C0 8.04918 8.04917 0 17.9426 0C27.836 0 35.8851 8.04918 35.8851 17.9426C35.8851 27.8353 27.836 35.8845 17.9426 35.8845ZM23.9927 10.6623C23.2595 10.6623 22.6653 11.2565 22.6653 11.9897C22.6653 12.7229 23.2595 13.3171 23.9927 13.3171C24.7259 13.3171 25.3201 12.7229 25.3201 11.9897C25.3207 11.2572 24.7259 10.6623 23.9927 10.6623ZM18.0901 12.3649C15.0151 12.3649 12.5131 14.8669 12.5131 17.9419C12.5131 21.0169 15.0151 23.5189 18.0901 23.5189C21.1652 23.5189 23.6671 21.0169 23.6671 17.9419C23.6671 14.8669 21.1652 12.3649 18.0901 12.3649ZM18.0901 21.5152C16.1202 21.5152 14.5175 19.9125 14.5175 17.9426C14.5175 15.9726 16.1202 14.3699 18.0901 14.3699C20.0601 14.3699 21.6628 15.9726 21.6628 17.9426C21.6628 19.9125 20.0601 21.5152 18.0901 21.5152ZM29.3434 13.3072C29.3434 9.55062 26.2974 6.50472 22.5408 6.50472H13.5626C9.80536 6.50472 6.76014 9.54996 6.76014 13.3072V22.2861C6.76014 26.0427 9.80603 29.0886 13.5626 29.0886H22.5408C26.2981 29.0886 29.3434 26.0434 29.3434 22.2861V13.3072ZM27.2133 22.2861C27.2133 24.8662 25.1216 26.9579 22.5408 26.9579H13.5626C10.9826 26.9579 8.89022 24.8662 8.89022 22.2861V13.3072C8.89022 10.7272 10.9819 8.63546 13.5626 8.63546H22.5408C25.1209 8.63546 27.2133 10.7272 27.2133 13.3072V22.2861Z" fill="#353F50"/>
</svg>
