<svg width="37" height="37" viewBox="0 0 37 37" fill="none" xmlns="http://www.w3.org/2000/svg">
<path d="M18.0604 36.1207C8.10213 36.1207 0 28.0193 0 18.0604C0 8.10211 8.10147 0 18.0604 0C28.0186 0 36.1201 8.10145 36.1201 18.0604C36.1207 28.0193 28.0193 36.1207 18.0604 36.1207Z" fill="#353F50"/>
<path d="M19.7744 16.5694L26.5438 9.26918H24.9069L19.0447 15.5912L14.3284 9.26921H14.2581V9.26416H9.76019V9.26921H8.71322L15.9329 18.9469L8.60229 26.8524H10.2392L16.6627 19.9251L21.8305 26.8524H21.9159H23.3279H25.9482H26.0477H27.4457L19.7744 16.5694ZM11.1341 10.5071H13.7545L18.2148 16.4861L16.7627 18.052L11.1341 10.5071ZM22.4213 25.6371L17.4925 19.0302L18.9446 17.4643L25.0417 25.6371H22.4213Z" fill="#FCFCFC"/>
</svg>
