<svg width="37" height="37" viewBox="0 0 37 37" fill="none" xmlns="http://www.w3.org/2000/svg">
<path d="M18.0604 36.1207C8.10213 36.1207 0 28.0193 0 18.0604C0 8.10211 8.10147 0 18.0604 0C28.0186 0 36.1201 8.10145 36.1201 18.0604C36.1207 28.0193 28.0193 36.1207 18.0604 36.1207Z" fill="#353F50"/>
<path d="M28.8743 15.3231C28.8743 12.7615 26.7978 10.6851 24.2363 10.6851H12.2068C9.64531 10.6851 7.56885 12.7615 7.56885 15.3231V20.9609C7.56885 23.5224 9.64531 25.5989 12.2068 25.5989H24.2363C26.7978 25.5989 28.8743 23.5224 28.8743 20.9609V15.3231ZM21.285 18.4259L16.4875 21.0569C16.2791 21.17 16.0911 21.0185 16.0911 20.7816V15.3806C16.0911 15.1404 16.2844 14.9896 16.4935 15.1087L21.324 17.8786C21.5371 18.0004 21.5007 18.3087 21.285 18.4259Z" fill="white"/>
</svg>
