<svg width="37" height="37" viewBox="0 0 37 37" fill="none" xmlns="http://www.w3.org/2000/svg">
<path d="M18.0604 36.1207C8.10213 36.1207 0 28.0193 0 18.0604C0 8.10145 8.10147 0 18.0604 0C28.0186 0 36.1201 8.10145 36.1201 18.0604C36.1201 28.0193 28.0186 36.1207 18.0604 36.1207Z" fill="#353F50"/>
<path fill-rule="evenodd" clip-rule="evenodd" d="M18.9126 6.30444C12.9002 6.30444 8.00879 11.1959 8.00879 17.2083C8.00879 19.3231 8.60898 21.3546 9.75045 23.1175L8.09413 26.7662C7.94127 27.1023 7.99687 27.4967 8.23642 27.778C8.41971 27.993 8.68637 28.1121 8.96098 28.1121C9.04502 28.1121 9.12975 28.1009 9.21313 28.0784L13.777 26.8264C15.3526 27.6688 17.1193 28.1128 18.9126 28.1128C24.925 28.1128 29.8165 23.2213 29.8165 17.2089C29.8165 11.1959 24.925 6.30444 18.9126 6.30444ZM18.9126 26.2077C17.3198 26.2077 15.7529 25.7842 14.3812 24.9822C14.2343 24.8962 14.0682 24.8525 13.9007 24.8525C13.816 24.8525 13.7314 24.8637 13.6486 24.8862L10.6669 25.7041L11.7052 23.4165C11.8461 23.1055 11.8104 22.7429 11.6105 22.4657C10.4995 20.9258 9.91257 19.1081 9.91257 17.2076C9.91257 12.2454 13.9497 8.20821 18.912 8.20821C23.8742 8.20821 27.9114 12.2454 27.9114 17.2076C27.912 22.1705 23.8749 26.2077 18.9126 26.2077Z" fill="white"/>
<path fill-rule="evenodd" clip-rule="evenodd" d="M23.1046 18.8411C22.648 18.5678 22.0537 18.2628 21.5158 18.4831C21.1028 18.6519 20.8395 19.2984 20.5721 19.6279C20.4345 19.7973 20.2711 19.8238 20.0607 19.7391C18.5116 19.1217 17.3244 18.0874 16.4695 16.6627C16.3246 16.4411 16.3504 16.2664 16.5251 16.0612C16.7838 15.7575 17.1074 15.4121 17.1775 15.0018C17.247 14.5922 17.0551 14.1131 16.8857 13.7479C16.6693 13.2813 16.4271 12.617 15.9606 12.3529C15.5311 12.1101 14.9654 12.2464 14.5829 12.5574C13.9225 13.0954 13.6042 13.9371 13.6135 14.7722C13.6161 15.0098 13.6453 15.246 13.7008 15.4749C13.8338 16.0255 14.0886 16.5397 14.3751 17.0287C14.5908 17.3973 14.8258 17.7552 15.0792 18.0993C15.9077 19.2249 16.9387 20.2029 18.1324 20.9341C18.7286 21.2994 19.3711 21.6197 20.0361 21.8394C20.7826 22.0856 21.4469 22.3423 22.2522 22.1894C23.0959 22.0293 23.9271 21.5072 24.2619 20.6946C24.3612 20.4537 24.4108 20.1857 24.3552 19.9316C24.2407 19.4076 23.5294 19.0952 23.1046 18.8411Z" fill="white"/>
</svg>
