<?xml version="1.0" encoding="utf-8"?>
<!-- Generator: Adobe Illustrator 16.0.0, SVG Export Plug-In . SVG Version: 6.00 Build 0)  -->
<!DOCTYPE svg PUBLIC "-//W3C//DTD SVG 1.1//EN" "http://www.w3.org/Graphics/SVG/1.1/DTD/svg11.dtd">
<svg version="1.1" id="Layer_1" xmlns="http://www.w3.org/2000/svg" xmlns:xlink="http://www.w3.org/1999/xlink" x="0px" y="0px"
	 width="407.788px" height="231.33px" viewBox="0 0 407.788 231.33" enable-background="new 0 0 407.788 231.33"
	 xml:space="preserve">
<image display="none" overflow="visible" width="2386" height="1110" xlink:href="E:\PROJECTS\Zhagaram\Z-Logo\Logo.jpg"  transform="matrix(0.1789 0 0 0.1789 31.7666 154.7285)">
</image>
<g>
	<path fill="#FFFFFF" d="M128.279,197.724c0,0.418-0.814,1.443-2.444,3.076h-0.341c-0.253-0.086-0.41-0.4-0.474-0.945
		c-0.139-1.1-0.587-1.998-1.345-2.699c-0.758-0.699-1.667-1.049-2.729-1.049c-0.998,0-1.856,0.307-2.576,0.92
		s-1.08,1.348-1.08,2.201c0,0.617,0.229,1.281,0.686,1.99s1.642,1.834,3.553,3.375c1.91,1.539,3.138,2.766,3.681,3.678
		c0.543,0.914,0.814,1.781,0.814,2.604c0,1.9-0.976,3.574-2.927,5.021c-1.951,1.445-4.234,2.17-6.849,2.17
		c-2.16,0-3.94-0.426-5.343-1.273c-1.402-0.85-2.103-1.541-2.103-2.074c0-0.299,0.385-0.992,1.155-2.082s1.213-1.635,1.326-1.635
		c0.404,0,0.691,0.1,0.862,0.297c0.17,0.197,0.287,0.564,0.351,1.098c0.189,1.666,0.666,2.813,1.43,3.443
		c0.765,0.631,1.759,0.945,2.984,0.945c1.339,0,2.507-0.393,3.505-1.176c0.997-0.785,1.497-1.695,1.497-2.729
		c0-0.533-0.194-1.102-0.581-1.705c-0.388-0.602-1.48-1.629-3.278-3.076c-1.798-1.449-2.975-2.676-3.53-3.68s-0.833-1.98-0.833-2.93
		c0-1.656,0.738-3.178,2.217-4.566c1.478-1.387,3.441-2.082,5.892-2.082c1.856,0,3.4,0.361,4.632,1.082
		C127.664,196.644,128.279,197.243,128.279,197.724z"/>
	<path fill="#FFFFFF" d="M147.338,214.126c-0.644,0.48-1.27,0.818-1.875,1.016c-0.606,0.197-1.087,0.297-1.44,0.297
		c-0.909,0-1.813-0.299-2.709-0.896c-1.818,2.328-3.903,3.49-6.252,3.49c-1.466,0-2.652-0.463-3.562-1.393
		c-0.91-0.93-1.364-2.162-1.364-3.699c0-2.436,1.022-4.525,3.069-6.271c2.046-1.746,4.489-2.617,7.332-2.617
		c1.073,0,1.859,0.098,2.358,0.295c0.499,0.199,0.805,0.43,0.919,0.697c0.113,0.268,0.17,0.604,0.17,1.01
		c0,1.996-0.644,4.447-1.932,7.35c0.644,0.504,1.319,0.754,2.026,0.754c0.847,0,1.933-0.625,3.259-1.875V214.126z M141.086,205.173
		c-0.189-0.064-0.461-0.098-0.814-0.098c-1.643,0-2.927,0.727-3.855,2.18c-0.929,1.451-1.393,3.148-1.393,5.092
		c0,1.08,0.202,1.918,0.606,2.516s0.966,0.896,1.686,0.896c0.897,0,1.869-0.699,2.918-2.098c-1.188-1.26-1.781-2.617-1.781-4.068
		C138.452,207.884,139.33,206.411,141.086,205.173z"/>
	<path fill="#FFFFFF" d="M162.703,214.126c-1.313,1.248-2.611,2.213-3.898,2.891s-2.435,1.016-3.444,1.016
		c-0.479,0-1.136-0.154-1.968-0.463c-0.533,2.35-1.002,4.885-1.408,7.605c-1.314,0.15-2.896,0.381-4.741,0.689
		c0.404-2.926,1.105-6.721,2.103-11.387c-0.139-0.203-0.385-0.715-0.738-1.537l-1.27,1.186h-0.436v-1.443l3.611-3.164
		c0.687-2.865,1.245-4.939,1.675-6.221c0.429-1.281,1.029-2.699,1.8-4.252c0.77-1.553,1.256-2.445,1.458-2.674
		c0.202-0.23,0.692-0.449,1.469-0.658c0.776-0.207,1.607-0.404,2.491-0.592s1.357-0.281,1.421-0.281c0.48,0,0.872,0.266,1.175,0.793
		s0.455,1.225,0.455,2.088c0,1.494-0.467,2.934-1.399,4.32s-2.696,3.094-5.291,5.119l-1.593,6.693c0.617,1.121,1.544,1.68,2.78,1.68
		c1.765,0,3.681-1.084,5.749-3.252V214.126z M156.34,204.997c1.477-1.09,2.635-2.262,3.475-3.516
		c0.84-1.256,1.259-2.412,1.259-3.469c0-0.449-0.098-0.816-0.292-1.105c-0.196-0.287-0.438-0.432-0.728-0.432
		c-0.554,0-1.118,0.613-1.69,1.842C157.79,199.546,157.116,201.772,156.34,204.997z"/>
	<path fill="#FFFFFF" d="M173.597,214.126c-1.591,1.334-2.968,2.318-4.13,2.953c-1.162,0.637-2.268,0.953-3.315,0.953
		c-1.086,0-1.968-0.387-2.643-1.16c-0.676-0.773-1.014-1.791-1.014-3.051c0-1.111,0.323-2.576,0.972-4.398l0.804-2.426l-1.453,0.064
		l0.606-2.514l1.802-0.064l1.778-4.996l5.062-0.879l-1.959,5.57l2.676-0.127l-0.626,2.465l-2.938,0.193l-1.262,3.588
		c-0.439,1.248-0.658,2.24-0.658,2.977c0,0.502,0.148,0.912,0.446,1.227c0.297,0.316,0.68,0.473,1.147,0.473
		c0.646,0,1.284-0.174,1.916-0.52c0.633-0.348,1.563-1.07,2.789-2.172V214.126z"/>
	<path fill="#FFFFFF" d="M199.855,214.126c-0.606,0.426-1.213,0.73-1.819,0.912c-0.605,0.182-1.073,0.271-1.401,0.271
		c-0.922,0-1.825-0.299-2.709-0.896c-2.299,2.414-4.667,3.619-7.104,3.619c-1.794,0-3.076-0.832-3.847-2.498
		c-1.692,1.666-3.518,2.498-5.475,2.498c-1.276,0-2.28-0.354-3.013-1.064c-0.732-0.709-1.099-1.689-1.099-2.939
		c0-1.346,0.224-2.711,0.673-4.1c0.447-1.389,1.133-3.086,2.055-5.094l4.995-0.783l-1.402,3.57c-1.187,3.096-1.778,5.23-1.773,6.406
		c0,0.555,0.157,1.01,0.474,1.361c0.315,0.354,0.713,0.529,1.193,0.529c1.011,0,2.021-0.662,3.031-1.986
		c0-1.676,0.36-3.416,1.08-5.221l1.554-3.877l5.073-0.783l-2.122,5.539c-0.683,1.783-1.024,3.193-1.024,4.229
		c0,0.631,0.165,1.133,0.493,1.506c0.329,0.375,0.765,0.563,1.309,0.563c0.67,0,1.302-0.209,1.896-0.625
		c0.594-0.416,1.264-1.047,2.01-1.891c-0.67-1.035-1.004-2.109-1.004-3.219c0-1.602,0.474-3.02,1.421-4.252
		c0.947-1.234,2.015-1.85,3.201-1.85c0.821,0,1.231,0.521,1.231,1.568c0,2.254-1.029,4.805-3.088,7.656
		c0.632,0.502,1.301,0.752,2.009,0.752c0.846,0,1.906-0.582,3.183-1.746V214.126z"/>
	<path fill="#FFFFFF" d="M220.07,214.126c-2.021,1.623-3.467,2.68-4.338,3.17c-0.872,0.492-1.705,0.736-2.501,0.736
		c-1.996,0-2.937-1.488-2.823-4.469c-1.263,1.527-2.428,2.654-3.495,3.381c-1.067,0.725-2.17,1.088-3.307,1.088
		c-1.111,0-2.055-0.439-2.832-1.32c-0.776-0.881-1.165-1.963-1.165-3.244c0-1.602,0.521-3.127,1.563-4.58
		c1.042-1.451,2.377-2.627,4.007-3.523c1.629-0.896,3.068-1.346,4.319-1.346c1.578,0,2.684,0.615,3.315,1.842l3.872-1.809h1.063
		l-1.671,4.691c-0.861,2.361-1.292,3.979-1.292,4.854c0,0.918,0.385,1.377,1.155,1.377c0.492,0,1.035-0.221,1.629-0.664
		c0.593-0.443,1.426-1.119,2.499-2.027V214.126z M206.202,215.007c1.263,0,2.454-0.91,3.571-2.732
		c1.118-1.82,1.677-3.498,1.677-5.037c0-0.598-0.158-1.064-0.474-1.4s-0.738-0.504-1.27-0.504c-1.263,0-2.46,0.906-3.59,2.723
		c-1.131,1.814-1.695,3.486-1.695,5.012c0,0.576,0.167,1.045,0.502,1.402C205.258,214.827,205.685,215.007,206.202,215.007z"/>
	<path fill="#FFFFFF" d="M234.223,214.126c-3.17,2.625-5.614,3.939-7.332,3.939c-0.771,0-1.421-0.275-1.951-0.826
		c-0.53-0.549-0.796-1.23-0.796-2.041c0-1.506,0.954-3.523,2.861-6.055c-0.936,0.406-1.958,0.689-3.069,0.85
		c-0.821,1.281-2.109,2.658-3.865,4.133h-0.436v-1.443c0.985-0.863,1.876-1.793,2.671-2.785c-1.086-0.406-1.629-1.01-1.629-1.811
		c0-0.822,0.332-1.699,0.995-2.635c0.663-0.934,1.575-1.4,2.737-1.4c0.985,0,1.478,0.426,1.478,1.281
		c0,0.672-0.284,1.633-0.853,2.883c2.097-0.193,3.928-1.549,5.494-4.068l1.725-0.064l-1.763,4.1
		c-0.732,1.73-1.206,2.908-1.421,3.531c-0.215,0.625-0.322,1.178-0.322,1.658c0,0.449,0.124,0.807,0.37,1.074
		c0.246,0.266,0.578,0.4,0.994,0.4c0.455,0,0.891-0.131,1.308-0.393s1.352-0.986,2.804-2.172V214.126z"/>
	<path fill="#FFFFFF" d="M248.394,214.126c-1.604,1.334-3.045,2.318-4.32,2.953c-1.275,0.637-2.684,0.953-4.225,0.953
		c-1.717,0-3.104-0.463-4.158-1.393s-1.582-2.152-1.582-3.668c0-2.264,0.928-4.311,2.785-6.143c1.855-1.83,3.914-2.746,6.176-2.746
		c1.176,0,2.115,0.256,2.822,0.77c0.709,0.512,1.063,1.184,1.063,2.018c0,2.209-2.779,4.004-8.336,5.381
		c0.504,2.082,1.824,3.123,3.959,3.123c0.834,0,1.629-0.189,2.387-0.568s1.9-1.219,3.43-2.523V214.126z M238.466,211.161
		c3.232-0.768,4.85-2.188,4.85-4.26c0-1.025-0.441-1.537-1.326-1.537c-0.834,0-1.629,0.537-2.387,1.609
		C238.845,208.048,238.466,209.442,238.466,211.161z"/>
	<path fill="#FFFFFF" d="M277.892,197.724c0,0.418-0.814,1.443-2.445,3.076h-0.34c-0.254-0.086-0.41-0.4-0.475-0.945
		c-0.139-1.1-0.586-1.998-1.344-2.699c-0.758-0.699-1.668-1.049-2.729-1.049c-0.998,0-1.857,0.307-2.576,0.92
		c-0.721,0.613-1.08,1.348-1.08,2.201c0,0.617,0.229,1.281,0.686,1.99s1.641,1.834,3.553,3.375c1.91,1.539,3.137,2.766,3.68,3.678
		c0.543,0.914,0.814,1.781,0.814,2.604c0,1.9-0.975,3.574-2.926,5.021c-1.951,1.445-4.234,2.17-6.85,2.17
		c-2.16,0-3.939-0.426-5.342-1.273c-1.402-0.85-2.104-1.541-2.104-2.074c0-0.299,0.385-0.992,1.156-2.082
		c0.77-1.09,1.213-1.635,1.326-1.635c0.404,0,0.691,0.1,0.861,0.297s0.287,0.564,0.352,1.098c0.189,1.666,0.666,2.813,1.43,3.443
		s1.758,0.945,2.984,0.945c1.338,0,2.506-0.393,3.504-1.176c0.998-0.785,1.498-1.695,1.498-2.729c0-0.533-0.195-1.102-0.582-1.705
		c-0.387-0.602-1.48-1.629-3.277-3.076c-1.799-1.449-2.975-2.676-3.531-3.68c-0.555-1.004-0.832-1.98-0.832-2.93
		c0-1.656,0.738-3.178,2.217-4.566c1.477-1.387,3.441-2.082,5.891-2.082c1.857,0,3.4,0.361,4.633,1.082
		S277.892,197.243,277.892,197.724z"/>
	<path fill="#FFFFFF" d="M296.95,214.126c-0.643,0.48-1.27,0.818-1.875,1.016s-1.086,0.297-1.439,0.297
		c-0.91,0-1.813-0.299-2.709-0.896c-1.818,2.328-3.904,3.49-6.252,3.49c-1.467,0-2.652-0.463-3.563-1.393s-1.363-2.162-1.363-3.699
		c0-2.436,1.021-4.525,3.068-6.271s4.49-2.617,7.332-2.617c1.074,0,1.859,0.098,2.359,0.295c0.498,0.199,0.805,0.43,0.918,0.697
		s0.17,0.604,0.17,1.01c0,1.996-0.643,4.447-1.932,7.35c0.645,0.504,1.32,0.754,2.027,0.754c0.846,0,1.932-0.625,3.258-1.875
		V214.126z M290.698,205.173c-0.189-0.064-0.461-0.098-0.814-0.098c-1.643,0-2.926,0.727-3.855,2.18
		c-0.928,1.451-1.393,3.148-1.393,5.092c0,1.08,0.203,1.918,0.607,2.516s0.965,0.896,1.686,0.896c0.896,0,1.869-0.699,2.918-2.098
		c-1.188-1.26-1.781-2.617-1.781-4.068C288.065,207.884,288.942,206.411,290.698,205.173z"/>
	<path fill="#FFFFFF" d="M309.474,214.126c-1.717,1.334-3.225,2.318-4.518,2.953c-1.295,0.637-2.529,0.953-3.705,0.953
		c-1.352,0-2.441-0.441-3.268-1.328c-0.828-0.887-1.24-2.076-1.24-3.572c0-2.242,0.574-4.934,1.723-8.072
		c1.15-3.139,2.545-6.031,4.188-8.68l4.813-1.506c0.152-0.043,0.266-0.064,0.342-0.064c0.365,0,0.666,0.227,0.898,0.682
		c0.234,0.453,0.352,1.064,0.352,1.832c0,2.18-0.594,4.287-1.781,6.328c-1.188,2.039-3.045,4.217-5.57,6.533
		c-0.102,1.111-0.152,1.875-0.152,2.291c0,0.928,0.203,1.666,0.607,2.211c0.404,0.543,0.941,0.816,1.609,0.816
		c0.684,0,1.408-0.209,2.18-0.625c0.77-0.416,1.945-1.281,3.523-2.596V214.126z M302.218,207.862
		c1.604-1.508,2.904-3.197,3.902-5.068s1.498-3.48,1.498-4.826c0-0.396-0.07-0.715-0.209-0.955s-0.316-0.361-0.531-0.361
		c-0.467,0-1.146,0.984-2.037,2.951C303.952,201.569,303.077,204.323,302.218,207.862z"/>
	<path fill="#FFFFFF" d="M329.708,214.126c-1.668,1.334-3.063,2.318-4.188,2.953c-1.125,0.637-2.135,0.953-3.031,0.953
		c-0.998,0-1.766-0.336-2.301-1.008c-0.537-0.674-0.807-1.586-0.807-2.738c-1.389,1.291-2.633,2.244-3.732,2.857
		c-1.098,0.615-2.172,0.922-3.221,0.922c-0.959,0-1.73-0.336-2.311-1.01c-0.582-0.672-0.871-1.586-0.871-2.738
		c0-2.221,0.883-5.35,2.652-9.385l5.061-0.854c-2.082,5.119-3.125,8.404-3.129,9.855c0,1.023,0.455,1.535,1.365,1.535
		c0.656,0,1.471-0.451,2.443-1.354c0.973-0.9,1.578-1.689,1.818-2.361l2.482-6.822l5.156-0.883
		c-1.189,3.215-2.008,5.473-2.449,6.775c-0.443,1.303-0.666,2.215-0.666,2.738c0,1.004,0.404,1.506,1.213,1.506
		c0.658,0,1.631-0.506,2.92-1.521l1.594-1.266V214.126z"/>
	<path fill="#FFFFFF" d="M340.601,214.126c-1.59,1.334-2.967,2.318-4.129,2.953c-1.162,0.637-2.268,0.953-3.316,0.953
		c-1.086,0-1.967-0.387-2.643-1.16s-1.014-1.791-1.014-3.051c0-1.111,0.324-2.576,0.973-4.398l0.803-2.426l-1.453,0.064l0.607-2.514
		l1.801-0.064l1.779-4.996l5.061-0.879l-1.959,5.57l2.676-0.127l-0.625,2.465l-2.939,0.193l-1.262,3.588
		c-0.439,1.248-0.658,2.24-0.658,2.977c0,0.502,0.148,0.912,0.447,1.227c0.297,0.316,0.68,0.473,1.146,0.473
		c0.646,0,1.285-0.174,1.916-0.52c0.633-0.348,1.563-1.07,2.789-2.172V214.126z"/>
	<path fill="#FFFFFF" d="M349.903,214.126c-2.955,2.625-5.166,3.939-6.631,3.939c-0.809,0-1.49-0.35-2.047-1.049
		c-0.555-0.699-0.832-1.578-0.832-2.635c0-2.275,0.908-5.424,2.727-9.449l4.813-0.85h0.229l-1.895,5.014
		c-0.783,2.07-1.176,3.549-1.176,4.436c0,0.354,0.092,0.639,0.275,0.857s0.414,0.328,0.691,0.328c0.492,0,0.988-0.152,1.486-0.457
		c0.5-0.305,1.285-0.963,2.359-1.979V214.126z M349.524,197.821c0,2.563-1.117,3.844-3.354,3.844c-1.086,0-2.014-0.277-2.785-0.834
		c0.732-0.939,1.301-1.996,1.705-3.17c0.998,0.523,1.801,0.785,2.406,0.785C348.179,198.446,348.854,198.237,349.524,197.821z"/>
	<path fill="#FFFFFF" d="M366.917,214.126c-0.645,0.48-1.27,0.818-1.875,1.016c-0.607,0.197-1.088,0.297-1.441,0.297
		c-0.908,0-1.813-0.299-2.709-0.896c-1.818,2.328-3.902,3.49-6.252,3.49c-1.465,0-2.652-0.463-3.561-1.393
		c-0.91-0.93-1.365-2.162-1.365-3.699c0-2.436,1.023-4.525,3.07-6.271c2.045-1.746,4.488-2.617,7.332-2.617
		c1.072,0,1.859,0.098,2.357,0.295c0.5,0.199,0.805,0.43,0.92,0.697c0.113,0.268,0.17,0.604,0.17,1.01
		c0,1.996-0.645,4.447-1.932,7.35c0.643,0.504,1.318,0.754,2.025,0.754c0.848,0,1.934-0.625,3.26-1.875V214.126z M360.665,205.173
		c-0.189-0.064-0.461-0.098-0.814-0.098c-1.643,0-2.928,0.727-3.855,2.18c-0.93,1.451-1.393,3.148-1.393,5.092
		c0,1.08,0.201,1.918,0.605,2.516s0.967,0.896,1.686,0.896c0.898,0,1.869-0.699,2.918-2.098c-1.188-1.26-1.781-2.617-1.781-4.068
		C358.03,207.884,358.909,206.411,360.665,205.173z"/>
	<path fill="#FFFFFF" d="M385.503,214.126c-2.918,2.604-5.42,3.906-7.504,3.906c-0.846,0-1.527-0.25-2.045-0.752
		s-0.777-1.174-0.777-2.018c0-1.143,0.557-2.889,1.668-5.238c0.594-1.26,0.891-2.061,0.891-2.402s-0.158-0.512-0.475-0.512
		c-0.178,0-0.41,0.074-0.701,0.225c-0.266,0.148-0.574,0.357-0.928,0.623c-0.316,0.246-0.67,0.545-1.061,0.898
		c-0.342,0.299-0.709,0.641-1.1,1.023l-1.061,1.041c-0.467,0.48-0.758,0.988-0.871,1.521c-0.189,0.908-0.316,1.742-0.379,2.5
		c-0.039,0.566-0.057,1.328-0.057,2.289l-4.188,0.834c-0.139-1.441-0.209-2.516-0.209-3.219c0-1.721,0.236-3.348,0.711-4.887
		c0.473-1.537,1.234-3.266,2.283-5.188l4.623-0.754c-0.973,2.211-1.611,3.951-1.914,5.221c2.07-1.953,3.713-3.307,4.93-4.059
		c1.217-0.754,2.299-1.129,3.244-1.129c0.643,0,1.178,0.205,1.607,0.615c0.428,0.41,0.643,0.924,0.643,1.543
		c0,1.023-0.543,2.711-1.629,5.059c-0.744,1.613-1.117,2.66-1.117,3.143c0,0.643,0.311,0.963,0.932,0.963
		c0.924,0,2.418-1.029,4.482-3.092V214.126z"/>
	<path fill="#FFFFFF" d="M391.317,204.739c0.871-0.191,1.75-0.35,2.635-0.473c0.883-0.123,1.414-0.184,1.59-0.184
		c0.127,0,0.189,0.043,0.189,0.129c0,0.16-0.051,0.324-0.15,0.496c-0.203,0.49-0.303,0.959-0.303,1.408
		c0.002,0.555,0.381,1.313,1.137,2.273c0.758,0.963,1.137,1.854,1.137,2.676c0,1.635-0.926,3.209-2.775,4.725
		c-1.852,1.518-3.768,2.275-5.75,2.275c-0.859,0-1.643-0.193-2.35-0.576c-0.707-0.385-1.061-0.797-1.061-1.234
		c0-0.256,0.35-0.742,1.051-1.457s1.203-1.072,1.506-1.072c0.404,0,0.764,0.438,1.08,1.313s0.859,1.313,1.629,1.313
		c0.771,0,1.494-0.301,2.17-0.904s1.014-1.252,1.014-1.947c0-0.672-0.43-1.568-1.289-2.689c-0.857-1.121-1.428-2.061-1.705-2.818
		c-1.465,1.996-3.322,4.041-5.57,6.135h-0.436v-1.443C388.161,209.897,390.245,207.249,391.317,204.739z"/>
</g>
<g>
	<g>
		<defs>
			<path id="SVGID_1_" d="M203.351,50.346c0-5.852,1.172-11.682,3.246-17.154c1.637-4.321,3.825-8.53,6.714-12.168
				c0.945-1.19,1.98-2.354,3.189-3.291c1.23-0.956,3.189-1.67,4.059,0.076c0.455,0.913,0.613,1.996,0.662,3.004v36.668
				c0,6.147-4.617,6.344-4.617,6.344h-13.253V50.346z M171.229,59.069c2.191,11.327,13.854,10.51,13.854,10.51h7.228v2.377
				c0,5.155,5.021,7.335,9.237,7.335h6.824c-8.432,12.49-33.127,22.798-33.127,22.798c35.334-2.774,48.186-26.368,48.186-26.368
				l-8.633-5.153c-2.609,3.764-3.613,3.765-7.227,3.765c-3.614,0-4.22-1.19-4.22-1.19V69.58h18.673c9.236,0,9.438-9.915,9.438-9.915
				s1.408-28.55,0-40.841c-1.404-12.292-16.863-11.103-26.1,2.775c-9.236,13.877-13.052,21.015-13.052,31.72v10.507h-0.001
				c-32.686,1.717,6.425-55.512,6.425-55.512C173.436,23.579,169.021,46.58,171.229,59.069"/>
		</defs>
		<clipPath id="SVGID_2_">
			<use xlink:href="#SVGID_1_"  overflow="visible"/>
		</clipPath>
		
			<linearGradient id="SVGID_3_" gradientUnits="userSpaceOnUse" x1="145.2246" y1="125.0479" x2="146.1462" y2="125.0479" gradientTransform="matrix(0 122.4658 122.4658 0 -15117.8125 -17782.0625)">
			<stop  offset="0" style="stop-color:#F9ED32"/>
			<stop  offset="0.2957" style="stop-color:#F7941E"/>
			<stop  offset="1" style="stop-color:#EF4136"/>
		</linearGradient>
		<rect x="159.623" y="6.532" clip-path="url(#SVGID_2_)" fill="url(#SVGID_3_)" width="73.246" height="95.559"/>
	</g>
</g>
<g>
	<path fill="#FFFFFF" d="M18.742,154.251h31.149l-4.706,8.322H6.508l31.337-41.521H10.743l4.799-8.322h34.443L18.742,154.251z"/>
	<path fill="#FFFFFF" d="M99.391,154.628l-4.705,8.418H78.499l-1.506-0.094c1.13-1.893,2.117-3.594,2.964-5.107
		c0.848-1.514,1.789-3.199,2.824-5.061c1.035-1.859,2.023-3.736,2.964-5.627c2.259-4.666,3.731-8.875,4.423-12.626
		c0.689-3.75,0.753-6.73,0.188-8.938c-0.376-1.703-1.317-2.932-2.823-3.689c-1.758-0.883-4.031-1.135-6.822-0.756
		c-2.793,0.377-6.103,1.859-9.929,4.445c-1.632,1.072-3.122,2.207-4.47,3.404c-1.35,1.199-2.526,2.334-3.529,3.404v30.171
		l-8.47-8.229V93.057l8.47,8.229v22.794c0.501-0.568,0.988-1.119,1.458-1.654s0.988-1.057,1.553-1.561
		c1.003-0.947,2.226-1.908,3.67-2.885c1.442-0.979,3.011-1.846,4.705-2.602c1.693-0.758,3.466-1.387,5.316-1.893
		c1.851-0.504,3.623-0.756,5.318-0.756c2.258,0,4.453,0.537,6.587,1.607c1.819,0.945,3.388,2.238,4.705,3.879
		c1.317,1.639,2.227,3.498,2.729,5.58c0.564,2.27,0.658,4.586,0.282,6.951s-1.035,4.715-1.977,7.047
		c-0.94,2.332-2.07,4.666-3.388,6.998c-1.317,2.334-2.668,4.572-4.047,6.715c-0.376,0.568-0.738,1.105-1.082,1.609
		c-0.346,0.504-0.675,1.008-0.988,1.512H99.391z"/>
	<path fill="#FFFFFF" d="M112.283,112.73c1.63,0,3.575-0.031,5.834-0.096c2.258-0.061,4.611-0.047,7.059,0.049
		c2.446,0.094,4.86,0.316,7.246,0.662c2.383,0.346,4.531,0.93,6.445,1.75c1.914,0.818,3.467,1.938,4.658,3.357
		c1.191,1.418,1.789,3.23,1.789,5.438v38.683l-6.023-5.863c-1.004,1.703-2.729,3.074-5.176,4.113
		c-2.447,1.041-5.145,1.688-8.094,1.939s-5.961,0.109-9.033-0.426c-3.075-0.535-5.758-1.561-8.047-3.074
		c-2.291-1.512-3.969-3.514-5.034-6.006c-1.067-2.49-1.067-5.533,0-9.127c0.626-2.143,1.63-3.877,3.011-5.201
		c1.38-1.324,2.965-2.459,4.753-3.404c1.788-0.947,3.701-1.766,5.74-2.461c2.038-0.691,4.062-1.449,6.07-2.27
		c3.89-1.639,6.665-3.01,8.328-4.113c1.661-1.104,2.524-2.018,2.588-2.744c0.062-0.723-0.518-1.275-1.741-1.654
		c-1.223-0.379-2.775-0.646-4.658-0.805c-1.882-0.156-3.969-0.236-6.258-0.236c-2.291,0-4.439,0-6.446,0c-2.009,0-3.733,0-5.176,0
		c-1.444,0-2.291-0.063-2.541-0.189L112.283,112.73z M136.844,130.89c-1.066,0.945-2.352,1.766-3.857,2.459
		s-3.092,1.355-4.753,1.986c-1.663,0.631-3.356,1.262-5.081,1.891c-1.727,0.631-3.311,1.371-4.753,2.223
		c-1.444,0.851-2.683,1.843-3.718,2.98c-1.035,1.135-1.74,2.49-2.117,4.066c-0.691,2.965-0.564,5.25,0.377,6.857
		s2.306,2.68,4.094,3.215c1.787,0.537,3.826,0.631,6.117,0.283c2.289-0.346,4.438-1.039,6.445-2.08s3.701-2.332,5.082-3.877
		c1.379-1.545,2.102-3.199,2.164-4.967V130.89z"/>
	<path fill="#FFFFFF" d="M193.025,120.958v1.703v39.912v4.352c0,1.639-0.235,3.121-0.706,4.445s-1.082,2.521-1.835,3.594
		s-1.616,2.002-2.588,2.791c-0.974,0.787-1.93,1.496-2.871,2.127c-2.258,1.449-4.784,2.348-7.574,2.695
		c-2.793,0.346-5.459,0.252-8-0.283c-2.541-0.537-4.737-1.451-6.588-2.742c-1.851-1.293-2.964-2.791-3.34-4.494
		c-0.188-0.441-0.283-1.072-0.283-1.891v-1.135l7.341-6.242c-0.063,0.945-0.095,1.828-0.095,2.648c0,0.693-0.016,1.449-0.047,2.27
		c-0.031,0.818,0.016,1.48,0.142,1.986c0.313,2.584,1.19,4.428,2.636,5.533c1.441,1.102,3.025,1.717,4.752,1.844
		c1.725,0.125,3.371-0.111,4.94-0.709c1.567-0.6,2.696-1.34,3.388-2.223c1.066-1.389,1.693-2.57,1.883-3.547
		c0.188-0.979,0.313-1.877,0.376-2.695v-12.77v-0.094c-0.503,0.379-0.941,0.693-1.317,0.945c-0.753,0.506-1.475,0.914-2.164,1.23
		c-0.064,0-0.095,0.016-0.095,0.047s-0.032,0.047-0.095,0.047l-0.094,0.094c-0.439,0.189-0.863,0.379-1.27,0.568
		c-0.41,0.189-0.863,0.379-1.365,0.568c-0.503,0.188-1.021,0.363-1.553,0.52c-0.533,0.158-1.051,0.301-1.553,0.426
		c-0.314,0.063-0.611,0.109-0.895,0.141c-0.281,0.031-0.58,0.08-0.894,0.143c-0.126,0.063-0.268,0.096-0.423,0.096
		c-0.158,0-0.299,0.029-0.424,0.094c-0.377,0-0.659,0.031-0.848,0.094h-0.094h-0.471h-0.094h-0.564h-0.094
		c-0.252,0.063-0.629,0.096-1.13,0.096c-0.063,0-0.095-0.018-0.095-0.047c0-0.033-0.031-0.049-0.094-0.049h-0.094h-0.094h-0.848
		h-0.094c-0.127,0-0.252-0.016-0.377-0.047c-0.126-0.031-0.251-0.047-0.376-0.047c-0.126,0-0.204-0.016-0.235-0.047
		c-0.032-0.033-0.11-0.047-0.235-0.047c-0.753-0.129-1.381-0.254-1.882-0.379h-0.188l-0.095-0.096h-0.094l-0.188-0.094h-0.095
		c-1.444-0.379-2.698-0.945-3.765-1.703h-0.094c-0.188-0.125-0.393-0.268-0.611-0.426c-0.221-0.156-0.424-0.297-0.611-0.426
		l-0.095-0.094c-0.188-0.125-0.409-0.314-0.659-0.568h-0.094l-0.188-0.188c-0.127-0.063-0.205-0.127-0.236-0.189
		s-0.109-0.156-0.234-0.283c-0.127-0.127-0.236-0.221-0.33-0.285c-0.094-0.063-0.204-0.156-0.329-0.283v-0.094l-0.471-0.475v-0.094
		c-0.94-1.072-1.788-2.27-2.54-3.594c-0.754-1.324-1.381-2.869-1.883-4.635c-0.753-2.332-1.176-4.602-1.271-6.811
		c-0.094-2.205,0.062-4.302,0.471-6.289c0.407-1.986,1.019-3.861,1.835-5.627c0.814-1.766,1.725-3.438,2.729-5.014
		c0-0.063,0.173-0.314,0.518-0.756s0.707-0.947,1.083-1.514c0.376-0.568,0.736-1.072,1.082-1.514
		c0.345-0.439,0.518-0.693,0.518-0.756c0.878-1.072,1.741-2.049,2.588-2.934c0.847-0.881,1.614-1.701,2.306-2.459
		c0.502-0.504,0.956-0.977,1.365-1.418c0.406-0.439,0.799-0.818,1.176-1.135l7.34,5.674l10.917,8.514v-4.256v-9.932L193.025,120.958
		z M158.959,140.063c-0.315,3.027-0.221,5.754,0.281,8.182s1.396,4.461,2.683,6.1c1.285,1.641,2.933,2.854,4.94,3.643
		s4.329,1.057,6.964,0.803c2.007-0.125,3.796-0.551,5.364-1.277c1.567-0.723,2.918-1.527,4.047-2.41h0.094l0.094-0.096
		c0.063-0.063,0.125-0.094,0.188-0.094c0-0.063,0.031-0.096,0.095-0.096c0.125-0.125,0.266-0.25,0.423-0.377
		c0.156-0.127,0.298-0.252,0.424-0.379v-21.753l-13.739-8.607c-1.068,0.254-2.229,0.727-3.482,1.42
		c-1.256,0.693-2.463,1.67-3.623,2.932c-1.162,1.262-2.181,2.885-3.059,4.871C159.773,134.91,159.209,137.291,158.959,140.063z"/>
	<path fill="#FFFFFF" d="M205.26,112.73c1.63,0,3.575-0.031,5.834-0.096c2.258-0.061,4.611-0.047,7.059,0.049
		c2.445,0.094,4.861,0.316,7.246,0.662c2.383,0.346,4.531,0.93,6.445,1.75c1.914,0.818,3.466,1.938,4.657,3.357
		c1.191,1.418,1.789,3.23,1.789,5.438v38.683l-6.022-5.863c-1.004,1.703-2.729,3.074-5.176,4.113
		c-2.447,1.041-5.145,1.688-8.094,1.939s-5.961,0.109-9.033-0.426c-3.075-0.535-5.758-1.561-8.047-3.074
		c-2.291-1.512-3.969-3.514-5.034-6.006c-1.067-2.49-1.067-5.533,0-9.127c0.626-2.143,1.63-3.877,3.011-5.201
		c1.38-1.324,2.965-2.459,4.753-3.404c1.788-0.947,3.701-1.766,5.741-2.461c2.037-0.691,4.061-1.449,6.068-2.27
		c3.891-1.639,6.666-3.01,8.33-4.113c1.66-1.104,2.523-2.018,2.588-2.744c0.061-0.723-0.518-1.275-1.742-1.654
		c-1.223-0.379-2.775-0.646-4.658-0.805c-1.883-0.156-3.969-0.236-6.258-0.236c-2.291,0-4.439,0-6.446,0c-2.009,0-3.733,0-5.176,0
		c-1.444,0-2.291-0.063-2.541-0.189L205.26,112.73z M229.82,130.89c-1.066,0.945-2.352,1.766-3.857,2.459s-3.092,1.355-4.752,1.986
		c-1.664,0.631-3.357,1.262-5.082,1.891c-1.727,0.631-3.311,1.371-4.752,2.223c-1.445,0.851-2.684,1.843-3.719,2.98
		c-1.035,1.135-1.74,2.49-2.117,4.066c-0.691,2.965-0.564,5.25,0.377,6.857s2.306,2.68,4.094,3.215
		c1.787,0.537,3.826,0.631,6.117,0.283c2.289-0.346,4.438-1.039,6.445-2.08s3.701-2.332,5.082-3.877
		c1.379-1.545,2.102-3.199,2.164-4.967V130.89z"/>
	<path fill="#FFFFFF" d="M277.249,113.109c1.506,0.127,2.9,0.631,4.188,1.512c1.285,0.885,2.354,2.004,3.199,3.359
		c0.848,1.355,1.443,2.789,1.789,4.303c0.344,1.514,0.375,2.947,0.094,4.303c-0.283,1.357-0.957,2.508-2.023,3.453
		c-1.068,0.945-2.574,1.482-4.518,1.607c-1.129,0.064-2.133-0.125-3.012-0.568c-0.879-0.439-1.615-1.039-2.211-1.797
		c-0.598-0.756-1.02-1.621-1.27-2.6c-0.252-0.977-0.252-1.971,0-2.98c-0.881,0.189-1.898,0.584-3.059,1.184
		c-1.162,0.6-2.4,1.293-3.719,2.08c-1.316,0.789-2.635,1.625-3.951,2.506c-1.318,0.885-2.541,1.703-3.67,2.459v30.644l-8.471-8.229
		v-33.197h-7.059l4.707-8.418h10.822v13.998c1.379-1.639,2.807-3.295,4.281-4.965c1.473-1.67,2.807-3.043,4-4.115
		c0.5-0.439,1.129-0.93,1.881-1.467c0.754-0.533,1.568-1.039,2.447-1.512s1.789-0.867,2.729-1.184
		C275.366,113.171,276.308,113.046,277.249,113.109z"/>
	<path fill="#FFFFFF" d="M299.364,112.73c1.631,0,3.576-0.031,5.834-0.096c2.258-0.061,4.611-0.047,7.059,0.049
		c2.445,0.094,4.861,0.316,7.246,0.662c2.383,0.346,4.531,0.93,6.445,1.75c1.914,0.818,3.467,1.938,4.658,3.357
		c1.191,1.418,1.789,3.23,1.789,5.438v38.683l-6.023-5.863c-1.004,1.703-2.729,3.074-5.176,4.113
		c-2.447,1.041-5.145,1.688-8.094,1.939s-5.961,0.109-9.033-0.426c-3.074-0.535-5.758-1.561-8.047-3.074
		c-2.291-1.512-3.969-3.514-5.035-6.006c-1.066-2.49-1.066-5.533,0-9.127c0.627-2.143,1.631-3.877,3.012-5.201
		c1.379-1.324,2.965-2.459,4.752-3.404c1.789-0.947,3.701-1.766,5.742-2.461c2.037-0.691,4.061-1.449,6.068-2.27
		c3.891-1.639,6.666-3.01,8.33-4.113c1.66-1.104,2.523-2.018,2.588-2.744c0.061-0.723-0.518-1.275-1.742-1.654
		c-1.223-0.379-2.775-0.646-4.658-0.805c-1.883-0.156-3.969-0.236-6.258-0.236c-2.291,0-4.439,0-6.447,0s-3.732,0-5.176,0
		s-2.291-0.063-2.539-0.189L299.364,112.73z M323.925,130.89c-1.066,0.945-2.352,1.766-3.857,2.459s-3.092,1.355-4.752,1.986
		c-1.664,0.631-3.357,1.262-5.082,1.891c-1.727,0.631-3.311,1.371-4.752,2.223c-1.445,0.851-2.684,1.843-3.719,2.98
		c-1.035,1.135-1.74,2.49-2.117,4.066c-0.691,2.965-0.564,5.25,0.377,6.857s2.305,2.68,4.094,3.215
		c1.787,0.537,3.826,0.631,6.117,0.283c2.289-0.346,4.438-1.039,6.445-2.08s3.701-2.332,5.082-3.877
		c1.379-1.545,2.102-3.199,2.164-4.967V130.89z"/>
	<path fill="#FFFFFF" d="M400.81,154.628l-4.799,8.324h-16.094h-1.6c1.131-1.893,2.119-3.594,2.965-5.107
		c0.848-1.514,1.789-3.217,2.824-5.107c1.035-1.893,2.023-3.783,2.963-5.676c2.26-4.602,3.732-8.779,4.424-12.531
		c0.689-3.75,0.752-6.73,0.188-8.938c-0.375-1.703-1.316-2.932-2.822-3.689c-1.568-0.818-3.545-1.119-5.93-0.898
		c-2.385,0.223-5.176,1.246-8.375,3.074v1.986v36.507l-8.469-8.229v-31.968c-0.439-0.881-1.209-1.434-2.307-1.654
		s-2.305-0.047-3.623,0.52c-1.066,0.441-2.18,0.945-3.34,1.514c-1.162,0.568-2.369,1.168-3.623,1.797v38.021l-8.471-8.229v-33.197
		h-7.059l4.707-8.418h10.822v6.811c0.5-0.316,0.939-0.615,1.316-0.898c0.377-0.285,0.721-0.553,1.035-0.805
		c1.254-0.945,2.461-1.781,3.623-2.506c1.16-0.725,2.273-1.309,3.342-1.75c2.947-1.197,5.457-1.545,7.527-1.041
		c2.07,0.506,3.451,1.672,4.141,3.5c1.82-0.945,3.766-1.734,5.836-2.365c2.07-0.629,4.107-0.945,6.117-0.945
		c2.383,0,4.578,0.506,6.586,1.514c1.82,1.01,3.389,2.332,4.705,3.973c1.318,1.639,2.227,3.498,2.73,5.58
		c0.564,2.27,0.658,4.586,0.281,6.951c-0.375,2.365-1.035,4.715-1.977,7.047c-0.939,2.332-2.07,4.666-3.387,6.998
		c-1.318,2.334-2.668,4.572-4.047,6.715c-0.377,0.568-0.738,1.105-1.082,1.609c-0.346,0.504-0.676,1.008-0.988,1.512H400.81z"/>
</g>
</svg>
